<svg xmlns="http://www.w3.org/2000/svg" aria-hidden="true" style="position:absolute;width:0;height:0;overflow:hidden">
    <defs>
        <symbol id="right" viewBox="0 0 32 32">
            <path d="M17.867 16.947a1.334 1.334 0 0 0 0-1.894l-6.12-6.107a1.334 1.334 0 1 1 1.88-1.894l6.12 6.12a4.001 4.001 0 0 1 0 5.654l-6.12 6.12a1.337 1.337 0 0 1-2.172-.434 1.331 1.331 0 0 1 .292-1.46l6.12-6.107z"/>
        </symbol>
        <symbol id="left" viewBox="0 0 32 32">
            <path d="M14.134 16.947a1.334 1.334 0 0 1 0-1.894l6.12-6.107a1.334 1.334 0 1 0-1.88-1.894l-6.12 6.12a4.001 4.001 0 0 0 0 5.654l6.12 6.12a1.337 1.337 0 0 0 2.172-.434 1.331 1.331 0 0 0-.292-1.46l-6.12-6.107z"/>
        </symbol>
        <symbol id="edit" viewBox="0 0 32 32">
            <path stroke-linecap="round" stroke-linejoin="round" stroke-width="2.667" d="M22.667 4a3.766 3.766 0 0 1 4.109-.817 3.766 3.766 0 0 1 2.327 3.484 3.779 3.779 0 0 1-1.104 2.666l-18 18-7.333 2 2-7.333 18-18z"/>
        </symbol>
        <symbol id="trash" viewBox="0 0 32 32">
            <path stroke-linecap="round" stroke-linejoin="round" stroke-width="2.667" d="M4 8h24M25.333 8v18.667a2.668 2.668 0 0 1-2.667 2.667H9.333a2.668 2.668 0 0 1-2.667-2.667V8m4.001 0V5.333a2.668 2.668 0 0 1 2.667-2.667h5.333a2.668 2.668 0 0 1 2.667 2.667V8M13.333 14.667v8M18.667 14.667v8"/>
        </symbol>
        <symbol id="favorite" viewBox="0 0 32 32">
            <path stroke-linecap="round" stroke-linejoin="round" stroke-width="2.667" d="M27.788 6.147a7.345 7.345 0 0 0-5.187-2.15 7.33 7.33 0 0 0-5.187 2.15L16.001 7.56l-1.413-1.413a7.333 7.333 0 0 0-10.374 0 7.333 7.333 0 0 0 0 10.374l11.787 11.787 11.787-11.787a7.345 7.345 0 0 0 2.149-5.187 7.33 7.33 0 0 0-2.149-5.187z"/>
        </symbol>
        <symbol id="healthicons" viewBox="0 0 32 32">
            <path d="M11.694 10.327a4.665 4.665 0 1 0 2.912 3.635.654.654 0 0 1 .313-.672.653.653 0 0 1 .504-.078.67.67 0 0 1 .501.546 5.993 5.993 0 0 1-3.514 6.403 5.997 5.997 0 1 1-.232-11.077.665.665 0 0 1 .433.609.669.669 0 0 1-.403.628.665.665 0 0 1-.515.006z"/>
            <path d="M9.331 26v-5.331a.665.665 0 1 1 1.332 0V26a.665.665 0 1 1-1.332 0z"/>
            <path d="M7.332 22.668a.665.665 0 0 1 .666-.666h3.998a.665.665 0 1 1 0 1.332H7.998a.665.665 0 0 1-.666-.666zm11.93-12.486a4.653 4.653 0 0 0-4.297.943 4.678 4.678 0 0 0-1.315 1.848 4.652 4.652 0 0 0-.288 2.249.67.67 0 0 1-.335.663.665.665 0 0 1-.989-.507 5.997 5.997 0 1 1 3.582 4.801.655.655 0 0 1-.355-.365.668.668 0 0 1 .883-.859 4.665 4.665 0 1 0 3.115-8.773z"/>
            <path d="M21.855 11.477a.665.665 0 0 1 0-.942l4.998-4.998a.658.658 0 0 1 .473-.203.655.655 0 0 1 .477.196.673.673 0 0 1 .196.477.669.669 0 0 1-.203.473l-4.998 4.998a.667.667 0 0 1-.942 0z"/>
            <path d="M27.273 10.007a.669.669 0 0 1-.657-.675l.033-2.648-2.648.033a.67.67 0 0 1-.675-.658.67.67 0 0 1 .658-.675L28 5.333l-.051 4.016a.65.65 0 0 1-.201.468c-.063.061-.137.109-.218.142s-.168.049-.256.047z"/>
        </symbol>
        <symbol id="male" viewBox="0 0 32 32">
            <path stroke-linecap="round" stroke-linejoin="round" stroke-width="2" d="M16 14.667a6.667 6.667 0 1 0 0 13.334 6.667 6.667 0 0 0 0-13.334zm0 0V4m0 0 5.333 5.333M16 4l-5.333 5.333"/>
        </symbol>
        <symbol id="female" viewBox="0 0 32 32">
            <path stroke-linecap="round" stroke-linejoin="round" stroke-width="2" d="M16 17.333a6.667 6.667 0 1 0 0-13.334 6.667 6.667 0 0 0 0 13.334zm0 0V28m-4-4h8"/>
        </symbol>
        <symbol id="calendar" viewBox="0 0 32 32">
            <path stroke-linecap="round" stroke-linejoin="round" stroke-width="2.88" d="M25.333 5.333H6.666A2.667 2.667 0 0 0 3.999 8v18.667a2.667 2.667 0 0 0 2.667 2.667h18.667A2.667 2.667 0 0 0 28 26.667V8a2.667 2.667 0 0 0-2.667-2.667zM21.333 2.667V8M10.667 2.667V8M4 13.333h24"/>
        </symbol>
        <symbol id="star" viewBox="0 0 32 32">
            <path stroke-width="2.4" d="M19.6 9.395a2.201 2.201 0 0 0 1.57 1.141l7.6 1.313-5.375 5.535a2.2 2.2 0 0 0-.6 1.846l1.098 7.635-6.922-3.402-.234-.1a2.203 2.203 0 0 0-1.473 0l-.234.1-6.924 3.402 1.1-7.635a2.2 2.2 0 0 0-.6-1.846l-5.377-5.535 7.602-1.313a2.198 2.198 0 0 0 1.57-1.141l3.6-6.822 3.6 6.822z"/>
        </symbol>
        <symbol id="user" viewBox="0 0 32 32">
            <path stroke-linecap="round" stroke-linejoin="round" stroke-width="2.667" d="M16 20c-4.227 0-7.986 2.041-10.379 5.208-.515.682-.773 1.022-.764 1.483.006.356.23.805.51 1.025.362.284.865.284 1.869.284h17.527c1.005 0 1.507 0 1.869-.284.28-.22.503-.669.51-1.025.008-.461-.249-.801-.764-1.483C23.985 22.041 20.226 20 15.999 20zM16 16a6 6 0 1 0 0-12 6 6 0 0 0 0 12z"/>
        </symbol>
        <symbol id="down" viewBox="0 0 32 32">
            <path stroke-linecap="round" stroke-linejoin="round" stroke-width="3.556" d="m8 12 8 8 8-8"/>
        </symbol>
        <symbol id="search" viewBox="0 0 32 32">
            <path stroke-linecap="round" stroke-linejoin="round" stroke-width="3.556" d="M14.667 25.333c5.891 0 10.667-4.776 10.667-10.667S20.558 3.999 14.667 3.999 4 8.775 4 14.666s4.776 10.667 10.667 10.667zM28.001 28l-5.8-5.8"/>
        </symbol>
        <symbol id="check" viewBox="0 0 32 32">
            <path stroke-linecap="round" stroke-linejoin="round" stroke-width="2.182" d="M26.667 9.333 12 24l-6.667-6.667"/>
        </symbol>
        <symbol id="cross" viewBox="0 0 32 32">
            <path stroke-linecap="round" stroke-linejoin="round" stroke-width="2.909" d="M25.333 6.667 6.666 25.334m0-18.667 18.667 18.667"/>
        </symbol>
        <symbol id="eye" viewBox="0 0 32 32">
            <path stroke-linecap="round" stroke-linejoin="round" stroke-width="2.909" d="M1.332 16S6.665 5.333 15.999 5.333 30.666 16 30.666 16s-5.333 10.667-14.667 10.667C6.666 26.667 1.332 16 1.332 16z"/>
            <path stroke-linecap="round" stroke-linejoin="round" stroke-width="2.909" d="M16 20a4 4 0 1 0 0-8 4 4 0 0 0 0 8z"/>
        </symbol>
        <symbol id="eye-off" viewBox="0 0 32 32">
            <path stroke-linecap="round" stroke-linejoin="round" stroke-width="2.909" d="M23.922 23.92a13.43 13.43 0 0 1-7.92 2.747C6.669 26.667 1.335 16 1.335 16a24.605 24.605 0 0 1 6.747-7.92m5.12-2.427a12.161 12.161 0 0 1 2.8-.32C25.335 5.333 30.669 16 30.669 16a24.646 24.646 0 0 1-2.88 4.253m-8.961-1.426a4.01 4.01 0 0 1-2.855 1.273 3.996 3.996 0 0 1-3.779-2.501 3.995 3.995 0 0 1 .983-4.424M1.335 1.333l29.333 29.333"/>
        </symbol>
        <symbol id="heart" viewBox="0 0 32 32">
            <path d="M15.991 7.561C13.432 4.539 9.164 3.727 5.958 6.493S2.3 13.886 4.818 17.158c1.613 2.096 5.743 5.983 8.505 8.506.918.839 1.376 1.258 1.926 1.426a2.59 2.59 0 0 0 1.485 0c.55-.168 1.008-.588 1.926-1.426 2.761-2.524 6.892-6.41 8.505-8.506 2.518-3.272 2.122-7.928-1.14-10.665s-7.474-1.954-10.033 1.068z"/>
        </symbol>
    </defs>
</svg>